<svg version="1.1" id="Layer_1" xmlns="http://www.w3.org/2000/svg" xmlns:xlink="http://www.w3.org/1999/xlink" viewBox="0 0 490 490" xml:space="preserve" fill="#000000"><g id="SVGRepo_bgCarrier" stroke-width="0"></g><g id="SVGRepo_tracerCarrier" stroke-linecap="round" stroke-linejoin="round"></g><g id="SVGRepo_iconCarrier"> <g> <g id="XMLID_20_"> <g> <rect x="160" y="105" style="fill:#F1F2F2;" width="80" height="35"></rect> <circle style="fill:#939598;" cx="340" cy="245" r="65"></circle> <path style="fill:#FFD248;" d="M55,105h105v35h80v-35h105v0.298C420,107.9,480,169.399,480,245c0,77.305-62.695,140-140,140 c-72.803,0-133.301-54.004-140-125L10,210V105H55z M405,245c0-35.898-29.102-65-65-65s-65,29.102-65,65s29.102,65,65,65 S405,280.898,405,245z"></path> </g> <g> <path style="fill:#231F20;" d="M447.806,140.815c-26.553-27.397-61.966-43.462-99.959-45.404C346.944,95.144,345.989,95,345,95 H240h-80H10c-5.523,0-10,4.477-10,10v105c0,4.543,3.062,8.515,7.455,9.671l183.419,48.268 c4.884,34.141,21.645,65.402,47.677,88.644C266.3,381.356,302.328,395,340,395c82.71,0,150-67.29,150-150 C490,205.89,475.016,168.89,447.806,140.815z M170,115h60v15h-60V115z M340,375c-32.752,0-64.051-11.839-88.129-33.336 c-23.923-21.358-38.779-50.534-41.871-82.19V215h-20v32.028L20,202.291V115h25v65h20v-65h85v25c0,5.523,4.477,10,10,10h80 c5.523,0,10-4.477,10-10v-25h92.57c0.669,0.167,1.366,0.267,2.083,0.292c33.741,1.171,65.274,15.178,88.791,39.442 C457.018,179.057,470,211.114,470,245C470,316.682,411.683,375,340,375z"></path> <path style="fill:#231F20;" d="M340,170c-41.355,0-75,33.645-75,75s33.645,75,75,75s75-33.645,75-75S381.355,170,340,170z M340,300c-30.327,0-55-24.673-55-55s24.673-55,55-55s55,24.673,55,55S370.327,300,340,300z"></path> <path style="fill:#231F20;" d="M340,210c-19.299,0-35,15.701-35,35s15.701,35,35,35v-20c-8.272,0-15-6.729-15-15s6.728-15,15-15 s15,6.729,15,15h20C375,225.701,359.299,210,340,210z"></path> </g> </g> </g> </g></svg>